<svg xmlns="http://www.w3.org/2000/svg" width="1366" height="542" viewBox="0 0 1366 542">
  <g id="Group_561" data-name="Group 561" transform="translate(0 -1869)">
    <g id="Group_560" data-name="Group 560">
      <g id="Group_559" data-name="Group 559">
        <g id="Group_292" data-name="Group 292" transform="translate(0 795)">
          <rect id="Rectangle_115" data-name="Rectangle 115" width="1366" height="542" transform="translate(0 1074)" fill="#0a0c19"/>
          <path id="Subtraction_9" data-name="Subtraction 9" d="M82.5,165a83.105,83.105,0,0,1-16.627-1.676,82.046,82.046,0,0,1-29.5-12.414,82.741,82.741,0,0,1-29.89-36.3A82.083,82.083,0,0,1,1.676,99.126a83.3,83.3,0,0,1,0-33.253,82.047,82.047,0,0,1,12.414-29.5,82.741,82.741,0,0,1,36.3-29.89A82.081,82.081,0,0,1,65.873,1.676a83.3,83.3,0,0,1,33.253,0,82.048,82.048,0,0,1,29.5,12.414,82.74,82.74,0,0,1,29.89,36.3,82.086,82.086,0,0,1,4.807,15.486,83.3,83.3,0,0,1,0,33.253,82.046,82.046,0,0,1-12.414,29.5,82.741,82.741,0,0,1-36.3,29.89,82.087,82.087,0,0,1-15.486,4.807A83.107,83.107,0,0,1,82.5,165Zm0-147.079A64.579,64.579,0,1,0,147.078,82.5,64.652,64.652,0,0,0,82.5,17.921Z" transform="translate(639 1151)" fill="#101223"/>
          <path id="Subtraction_13" data-name="Subtraction 13" d="M47.5,95a47.849,47.849,0,0,1-9.573-.965,47.239,47.239,0,0,1-16.985-7.147,47.639,47.639,0,0,1-17.209-20.9A47.26,47.26,0,0,1,.965,57.073a47.963,47.963,0,0,1,0-19.146A47.239,47.239,0,0,1,8.112,20.942a47.638,47.638,0,0,1,20.9-17.209A47.258,47.258,0,0,1,37.927.965a47.963,47.963,0,0,1,19.146,0A47.24,47.24,0,0,1,74.058,8.112a47.638,47.638,0,0,1,17.21,20.9,47.261,47.261,0,0,1,2.768,8.916,47.962,47.962,0,0,1,0,19.146,47.239,47.239,0,0,1-7.147,16.985,47.639,47.639,0,0,1-20.9,17.21,47.262,47.262,0,0,1-8.916,2.768A47.85,47.85,0,0,1,47.5,95Zm0-84.682A37.182,37.182,0,1,0,84.681,47.5,37.224,37.224,0,0,0,47.5,10.318Z" transform="translate(5 1453)" fill="#101223"/>
          <path id="Path_6084" data-name="Path 6084" d="M0,24.591,24.591,0,49.182,24.591,73.773,0,98.365,24.591,122.956,0l24.591,24.591" transform="translate(1194.379 1161.626) rotate(14)" fill="none" stroke="#101223" stroke-linecap="round" stroke-linejoin="round" stroke-width="15"/>
          <path id="Subtraction_11" data-name="Subtraction 11" d="M96,108H12A12,12,0,0,1,0,96V12A12,12,0,0,1,12,0H96a12,12,0,0,1,12,12V96a12,12,0,0,1-12,12ZM27.212,15.211a12.014,12.014,0,0,0-12,12V80.789a12.014,12.014,0,0,0,12,12H80.789a12.014,12.014,0,0,0,12-12V27.212a12.014,12.014,0,0,0-12-12Z" transform="translate(1244.012 1418.933) rotate(30)" fill="#101223"/>
          <g id="Group_278" data-name="Group 278" transform="translate(683 1429.35) rotate(-41)">
            <line id="Line_1" data-name="Line 1" x2="37.996" y2="37.996" transform="translate(0 0)" fill="none" stroke="#101223" stroke-linecap="round" stroke-width="11"/>
            <line id="Line_2" data-name="Line 2" x1="37.996" y2="37.996" transform="translate(0 0)" fill="none" stroke="#101223" stroke-linecap="round" stroke-width="11"/>
          </g>
          <path id="Subtraction_12" data-name="Subtraction 12" d="M96,108H12A12,12,0,0,1,0,96V12A12,12,0,0,1,12,0H96a12,12,0,0,1,12,12V96a12,12,0,0,1-12,12ZM33.211,21.211a12.013,12.013,0,0,0-12,12V74.789a12.013,12.013,0,0,0,12,12H74.789a12.013,12.013,0,0,0,12-12V33.211a12.013,12.013,0,0,0-12-12Z" transform="translate(115.012 1131.47) rotate(30)" fill="#101223"/>
        </g>
        <line id="Line_12" data-name="Line 12" x2="596" transform="translate(669.75 2106.5)" fill="none" stroke="#252a50" stroke-width="0.5" opacity="0.51"/>
      </g>
    </g>
  </g>
</svg>
