<svg id="Group_560" data-name="Group 560" xmlns="http://www.w3.org/2000/svg" xmlns:xlink="http://www.w3.org/1999/xlink" width="1366" height="700" viewBox="0 0 1366 700">
  <defs>
    <clipPath id="clip-path">
      <rect id="Rectangle_105" data-name="Rectangle 105" width="1366" height="700" fill="#0d0f20"/>
    </clipPath>
  </defs>
  <g id="Group_559" data-name="Group 559">
    <rect id="Rectangle_98" data-name="Rectangle 98" width="1366" height="700" fill="#0d0f20"/>
    <g id="Mask_Group_1" data-name="Mask Group 1" clip-path="url(#clip-path)">
      <path id="Path_6077" data-name="Path 6077" d="M722.879,398.223l24.591-24.591,24.591,24.591,24.591-24.591,24.591,24.591,24.591-24.591,24.591,24.591" transform="translate(-636.181 -315.471) rotate(14)" fill="none" stroke="#101223" stroke-linecap="round" stroke-linejoin="round" stroke-width="15"/>
      <path id="Path_6078" data-name="Path 6078" d="M722.879,407.888l34.257-34.257,34.257,34.257,34.257-34.257,34.257,34.257,34.257-34.257,34.257,34.257" transform="translate(-454.963 303.211) rotate(-9)" fill="none" stroke="#101223" stroke-linecap="round" stroke-linejoin="round" stroke-width="15"/>
      <path id="Path_6079" data-name="Path 6079" d="M722.879,407.888l34.257-34.257,34.257,34.257,34.257-34.257,34.257,34.257,34.257-34.257,34.257,34.257" transform="translate(211.295 236.674) rotate(-9)" fill="none" stroke="#101223" stroke-linecap="round" stroke-linejoin="round" stroke-width="15"/>
      <path id="Subtraction_1" data-name="Subtraction 1" d="M112,224a112.822,112.822,0,0,1-22.572-2.275A111.384,111.384,0,0,1,49.38,204.872,112.327,112.327,0,0,1,8.8,155.6a111.435,111.435,0,0,1-6.526-21.024,113.092,113.092,0,0,1,0-45.144A111.386,111.386,0,0,1,19.128,49.38,112.327,112.327,0,0,1,68.4,8.8,111.431,111.431,0,0,1,89.428,2.275a113.092,113.092,0,0,1,45.144,0,111.386,111.386,0,0,1,40.049,16.852A112.326,112.326,0,0,1,215.2,68.4a111.436,111.436,0,0,1,6.526,21.024,113.09,113.09,0,0,1,0,45.144,111.384,111.384,0,0,1-16.852,40.049A112.327,112.327,0,0,1,155.6,215.2a111.437,111.437,0,0,1-21.024,6.526A112.824,112.824,0,0,1,112,224Zm0-199.671A87.67,87.67,0,1,0,199.67,112,87.77,87.77,0,0,0,112,24.329Z" transform="translate(-94 545)" fill="#101223"/>
      <path id="Subtraction_2" data-name="Subtraction 2" d="M83.5,167a84.113,84.113,0,0,1-16.828-1.7A83.041,83.041,0,0,1,36.814,152.74,83.744,83.744,0,0,1,6.562,116,83.078,83.078,0,0,1,1.7,100.328a84.314,84.314,0,0,1,0-33.656A83.042,83.042,0,0,1,14.261,36.814,83.744,83.744,0,0,1,51,6.562,83.075,83.075,0,0,1,66.672,1.7a84.314,84.314,0,0,1,33.656,0,83.043,83.043,0,0,1,29.858,12.564A83.743,83.743,0,0,1,160.439,51,83.08,83.08,0,0,1,165.3,66.672a84.313,84.313,0,0,1,0,33.656,83.041,83.041,0,0,1-12.564,29.858A83.744,83.744,0,0,1,116,160.439a83.08,83.08,0,0,1-15.674,4.865A84.115,84.115,0,0,1,83.5,167Zm0-148.862A65.361,65.361,0,1,0,148.861,83.5,65.435,65.435,0,0,0,83.5,18.138Z" transform="translate(204 71)" fill="#101223"/>
      <path id="Subtraction_3" data-name="Subtraction 3" d="M48.5,97a48.856,48.856,0,0,1-9.774-.985,48.233,48.233,0,0,1-17.342-7.3A48.642,48.642,0,0,1,3.811,67.379a48.255,48.255,0,0,1-2.826-9.1,48.973,48.973,0,0,1,0-19.549,48.234,48.234,0,0,1,7.3-17.342A48.642,48.642,0,0,1,29.622,3.811a48.254,48.254,0,0,1,9.1-2.826,48.973,48.973,0,0,1,19.549,0,48.234,48.234,0,0,1,17.343,7.3A48.641,48.641,0,0,1,93.189,29.622a48.256,48.256,0,0,1,2.826,9.1,48.972,48.972,0,0,1,0,19.549,48.234,48.234,0,0,1-7.3,17.343A48.642,48.642,0,0,1,67.379,93.189a48.256,48.256,0,0,1-9.1,2.826A48.857,48.857,0,0,1,48.5,97Zm0-86.465A37.964,37.964,0,1,0,86.464,48.5,38.007,38.007,0,0,0,48.5,10.536Z" transform="translate(1218 560)" fill="#101223"/>
      <path id="Subtraction_7" data-name="Subtraction 7" d="M48.5,97a48.856,48.856,0,0,1-9.774-.985,48.233,48.233,0,0,1-17.342-7.3A48.642,48.642,0,0,1,3.811,67.379a48.255,48.255,0,0,1-2.826-9.1,48.973,48.973,0,0,1,0-19.549,48.234,48.234,0,0,1,7.3-17.342A48.642,48.642,0,0,1,29.622,3.811a48.254,48.254,0,0,1,9.1-2.826,48.973,48.973,0,0,1,19.549,0,48.234,48.234,0,0,1,17.343,7.3A48.641,48.641,0,0,1,93.189,29.622a48.256,48.256,0,0,1,2.826,9.1,48.972,48.972,0,0,1,0,19.549,48.234,48.234,0,0,1-7.3,17.343A48.642,48.642,0,0,1,67.379,93.189a48.256,48.256,0,0,1-9.1,2.826A48.857,48.857,0,0,1,48.5,97Zm0-86.465A37.964,37.964,0,1,0,86.464,48.5,38.007,38.007,0,0,0,48.5,10.536Z" transform="translate(877 85)" fill="#101223"/>
      <path id="Subtraction_4" data-name="Subtraction 4" d="M96,108H12A12,12,0,0,1,0,96V12A12,12,0,0,1,12,0H96a12,12,0,0,1,12,12V96a12,12,0,0,1-12,12ZM27.212,15.211a12.014,12.014,0,0,0-12,12V80.789a12.014,12.014,0,0,0,12,12H80.789a12.014,12.014,0,0,0,12-12V27.212a12.014,12.014,0,0,0-12-12Z" transform="translate(798.012 526.457) rotate(30)" fill="#101223"/>
      <path id="Subtraction_6" data-name="Subtraction 6" d="M96,108H12A12,12,0,0,1,0,96V12A12,12,0,0,1,12,0H96a12,12,0,0,1,12,12V96a12,12,0,0,1-12,12ZM27.212,15.211a12.014,12.014,0,0,0-12,12V80.789a12.014,12.014,0,0,0,12,12H80.789a12.014,12.014,0,0,0,12-12V27.212a12.014,12.014,0,0,0-12-12Z" transform="translate(568.012 80.735) rotate(30)" fill="#101223"/>
      <path id="Subtraction_5" data-name="Subtraction 5" d="M96,108H12A12,12,0,0,1,0,96V12A12,12,0,0,1,12,0H96a12,12,0,0,1,12,12V96a12,12,0,0,1-12,12ZM33.211,21.211a12.013,12.013,0,0,0-12,12V74.789a12.013,12.013,0,0,0,12,12H74.789a12.013,12.013,0,0,0,12-12V33.211a12.013,12.013,0,0,0-12-12Z" transform="translate(1265.012 236.469) rotate(30)" fill="#101223"/>
      <path id="Polygon_1" data-name="Polygon 1" d="M43,0,86,75H0Z" transform="translate(414.352 302.756) rotate(-1)" fill="#101223"/>
      <path id="Polygon_3" data-name="Polygon 3" d="M67.3,0l67.3,117.378H0Z" transform="translate(871.685 292.274) rotate(-48)" fill="#101223"/>
      <path id="Polygon_2" data-name="Polygon 2" d="M35,0,70,61H0Z" transform="translate(1186.583 129.05) rotate(-149)" fill="#101223"/>
      <g id="Group_264" data-name="Group 264">
        <line id="Line_1" data-name="Line 1" x2="37.996" y2="37.996" transform="translate(747.5 339.5)" fill="none" stroke="#101223" stroke-linecap="round" stroke-width="11"/>
        <line id="Line_2" data-name="Line 2" x1="37.996" y2="37.996" transform="translate(747.5 339.5)" fill="none" stroke="#101223" stroke-linecap="round" stroke-width="11"/>
      </g>
      <g id="Group_265" data-name="Group 265" transform="translate(-525.854 10.5)">
        <line id="Line_1-2" data-name="Line 1" x2="106.517" y2="106.517" transform="translate(747.5 339.5)" fill="none" stroke="#101223" stroke-linecap="round" stroke-width="21"/>
        <line id="Line_2-2" data-name="Line 2" x1="106.517" y2="106.517" transform="translate(747.5 339.5)" fill="none" stroke="#101223" stroke-linecap="round" stroke-width="21"/>
      </g>
    </g>
  </g>
</svg>
