<svg xmlns="http://www.w3.org/2000/svg" width="49.508" height="28.798" viewBox="0 0 49.508 28.798">
  <g id="Group_564" data-name="Group 564" transform="translate(-918.469 -2957.587)">
    <g id="Group_563" data-name="Group 563">
      <path id="Path_6088" data-name="Path 6088" d="M10.346,5.85l-7.5,7.5a6.9,6.9,0,0,0,0,9.763l7.5,7.5a6.9,6.9,0,0,0,9.763,0l7.5-7.5a6.9,6.9,0,0,0,0-9.763l-7.5-7.5A6.9,6.9,0,0,0,10.346,5.85ZM5.291,15.787l7.5-7.5a3.452,3.452,0,0,1,4.881,0l7.5,7.5a3.452,3.452,0,0,1,0,4.881l-7.5,7.5a3.452,3.452,0,0,1-4.881,0l-7.5-7.5A3.452,3.452,0,0,1,5.291,15.787Z" transform="translate(917.64 2953.758)" fill="#da2b2b"/>
      <path id="Path_6089" data-name="Path 6089" d="M11.74,30.6,8.707,27.571l2.022-2.022q.211-.211.407-.431l3.045,3.045a3.452,3.452,0,0,0,4.881,0l7.5-7.5a3.452,3.452,0,0,0,0-4.881l-7.5-7.5a3.452,3.452,0,0,0-4.881,0l-3.045,3.045q-.2-.22-.407-.431L8.707,8.883,11.74,5.85a6.9,6.9,0,0,1,9.763,0l7.5,7.5a6.9,6.9,0,0,1,0,9.763l-7.5,7.5A6.9,6.9,0,0,1,11.74,30.6Z" transform="translate(936.956 2953.758)" fill="#da2b2b"/>
    </g>
  </g>
</svg>
